# xmcd
#
# Track frame offsets:
# 150
# 17582
# 35102
# 53670
# 69155
# 87092
# 106035
# 124902
# 140350
# 160392
# 180257
#
# Disc length: 2669 seconds
#
#
# Revision: 2
# Processed by: cddbd v1.5.1PL0 Copyright (c) Steve Scherf et al.
# Submitted via: FreeRIP 2.90 
#
DISCID=830a6b0b
DTITLE=譚詠麟 - 實在男人
DYEAR=1995
DGENRE=Pop
TTITLE0=真實的謊話
TTITLE1=譚詠麟 - 還我真情
TTITLE2=譚詠麟 - 迷香
TTITLE3=譚詠麟 - 是你是你
TTITLE4=譚詠麟 - 忘不了 停不了 逃不掉
TTITLE5=譚詠麟 - 笑笑看一生
TTITLE6=譚詠麟 - 情中情戲中戲
TTITLE7=譚詠麟 - Born free
TTITLE8=譚詠麟 - 大話街
TTITLE9=譚詠麟 - 世事無絕對 (寄語任何曾失意的人)
TTITLE10=譚詠麟 - 還我真情（忘情版）
EXTD=
EXTT0=
EXTT1=
EXTT2=
EXTT3=
EXTT4=
EXTT5=
EXTT6=
EXTT7=
EXTT8=
EXTT9=
EXTT10=
PLAYORDER=
